<svg width="16" height="17" viewBox="0 0 16 17" fill="none" xmlns="http://www.w3.org/2000/svg">
<g clip-path="url(#clip0_10_42)">
<path d="M15.9843 5.18988C15.9469 4.33974 15.8094 3.75528 15.6124 3.24883C15.4093 2.71125 15.0967 2.22995 14.6872 1.82985C14.2871 1.42352 13.8026 1.10779 13.2713 0.907797C12.7619 0.710859 12.1805 0.573381 11.3304 0.535898C10.4739 0.495241 10.202 0.48584 8.02967 0.48584C5.85737 0.48584 5.58547 0.495241 4.73215 0.532724C3.88201 0.570207 3.29755 0.707807 2.79122 0.904623C2.25352 1.10779 1.77223 1.42035 1.37212 1.82985C0.965793 2.22995 0.65018 2.71442 0.450068 3.24578C0.25313 3.75528 0.115652 4.33657 0.0781691 5.18671C0.0375117 6.0432 0.0281105 6.3151 0.0281105 8.4874C0.0281105 10.6597 0.0375117 10.9316 0.0749946 11.7849C0.112478 12.6351 0.250078 13.2195 0.447015 13.726C0.65018 14.2636 0.965793 14.7449 1.37212 15.145C1.77223 15.5513 2.25669 15.867 2.78805 16.067C3.29755 16.2639 3.87884 16.4014 4.7291 16.4389C5.58229 16.4765 5.85432 16.4858 8.02662 16.4858C10.1989 16.4858 10.4708 16.4765 11.3241 16.4389C12.1743 16.4014 12.7587 16.2639 13.2651 16.067C14.3403 15.6513 15.1905 14.8011 15.6062 13.726C15.803 13.2165 15.9406 12.6351 15.9781 11.7849C16.0156 10.9316 16.025 10.6597 16.025 8.4874C16.025 6.3151 16.0218 6.0432 15.9843 5.18988ZM14.5435 11.7224C14.5091 12.5038 14.3778 12.9258 14.2684 13.2071C13.9996 13.9041 13.4464 14.4573 12.7493 14.7262C12.468 14.8356 12.043 14.9668 11.2647 15.0011C10.4208 15.0387 10.1677 15.048 8.03285 15.048C5.89803 15.048 5.64175 15.0387 4.80089 15.0011C4.01949 14.9668 3.59753 14.8356 3.31623 14.7262C2.96936 14.598 2.65362 14.3948 2.39735 14.1291C2.13167 13.8697 1.92851 13.5571 1.80031 13.2102C1.69091 12.9289 1.55966 12.5038 1.52535 11.7256C1.48775 10.8817 1.47847 10.6284 1.47847 8.49363C1.47847 6.35881 1.48775 6.10254 1.52535 5.2618C1.55966 4.48039 1.69091 4.05844 1.80031 3.77713C1.92851 3.43014 2.13167 3.11453 2.40052 2.85813C2.65985 2.59245 2.97241 2.38929 3.3194 2.26121C3.60071 2.15181 4.02584 2.02056 4.80407 1.98613C5.64798 1.94865 5.9012 1.93925 8.0359 1.93925C10.1739 1.93925 10.427 1.94865 11.2679 1.98613C12.0493 2.02056 12.4712 2.15181 12.7525 2.26121C13.0994 2.38929 13.4151 2.59245 13.6714 2.85813C13.9371 3.11758 14.1402 3.43014 14.2684 3.77713C14.3778 4.05844 14.5091 4.48345 14.5435 5.2618C14.581 6.10571 14.5904 6.35881 14.5904 8.49363C14.5904 10.6284 14.581 10.8785 14.5435 11.7224Z" fill="white"/>
<path d="M8.02967 4.37744C5.76055 4.37744 3.91949 6.21838 3.91949 8.48762C3.91949 10.7569 5.76055 12.5978 8.02967 12.5978C10.2989 12.5978 12.1398 10.7569 12.1398 8.48762C12.1398 6.21838 10.2989 4.37744 8.02967 4.37744ZM8.02967 11.1538C6.55758 11.1538 5.3635 9.95983 5.3635 8.48762C5.3635 7.01541 6.55758 5.82145 8.02967 5.82145C9.50188 5.82145 10.6958 7.01541 10.6958 8.48762C10.6958 9.95983 9.50188 11.1538 8.02967 11.1538Z" fill="white"/>
<path d="M13.262 4.21442C13.262 4.74431 12.8324 5.17396 12.3024 5.17396C11.7725 5.17396 11.3428 4.74431 11.3428 4.21442C11.3428 3.68441 11.7725 3.25488 12.3024 3.25488C12.8324 3.25488 13.262 3.68441 13.262 4.21442Z" fill="white"/>
</g>
<defs>
<clipPath id="clip0_10_42">
<rect width="16" height="16" fill="white" transform="translate(0 0.48584)"/>
</clipPath>
</defs>
</svg>
