<svg width="14" height="15" viewBox="0 0 14 15" fill="none" xmlns="http://www.w3.org/2000/svg">
<g clip-path="url(#clip0_10_23)">
<path d="M12.6 0.48584H1.4C0.63 0.48584 0 1.11584 0 1.88584V13.0858C0 13.8558 0.63 14.4858 1.4 14.4858H12.6C13.37 14.4858 14 13.8558 14 13.0858V1.88584C14 1.11584 13.37 0.48584 12.6 0.48584ZM4.2 12.3858H2.1V6.08584H4.2V12.3858ZM3.15 4.89584C2.45 4.89584 1.89 4.33584 1.89 3.63584C1.89 2.93584 2.45 2.37584 3.15 2.37584C3.85 2.37584 4.41 2.93584 4.41 3.63584C4.41 4.33584 3.85 4.89584 3.15 4.89584ZM11.9 12.3858H9.8V8.67584C9.8 8.11587 9.31 7.62584 8.75 7.62584C8.19 7.62584 7.7 8.11587 7.7 8.67584V12.3858H5.6V6.08584H7.7V6.92584C8.05 6.36584 8.82 5.94584 9.45 5.94584C10.78 5.94584 11.9 7.06584 11.9 8.39584V12.3858Z" fill="white"/>
</g>
<defs>
<clipPath id="clip0_10_23">
<rect width="14" height="14" fill="white" transform="translate(0 0.48584)"/>
</clipPath>
</defs>
</svg>
