<svg width="20" height="21" viewBox="0 0 20 21" fill="none" xmlns="http://www.w3.org/2000/svg">
<g clip-path="url(#clip0_10_4)">
<path d="M20 4.28459C19.2563 4.61084 18.4637 4.82709 17.6375 4.93209C18.4875 4.42459 19.1363 3.62709 19.4412 2.66584C18.6488 3.13834 17.7738 3.47209 16.8412 3.65834C16.0887 2.85709 15.0162 2.36084 13.8462 2.36084C11.5763 2.36084 9.74875 4.20334 9.74875 6.46209C9.74875 6.78709 9.77625 7.09959 9.84375 7.39709C6.435 7.23084 3.41875 5.59709 1.3925 3.10834C1.03875 3.72209 0.83125 4.42459 0.83125 5.18084C0.83125 6.60084 1.5625 7.85959 2.6525 8.58834C1.99375 8.57584 1.3475 8.38459 0.8 8.08334C0.8 8.09584 0.8 8.11209 0.8 8.12834C0.8 10.1208 2.22125 11.7758 4.085 12.1571C3.75125 12.2483 3.3875 12.2921 3.01 12.2921C2.7475 12.2921 2.4825 12.2771 2.23375 12.2221C2.765 13.8458 4.2725 15.0396 6.065 15.0783C4.67 16.1696 2.89875 16.8271 0.98125 16.8271C0.645 16.8271 0.3225 16.8121 0 16.7708C1.81625 17.9421 3.96875 18.6108 6.29 18.6108C13.835 18.6108 17.96 12.3608 17.96 6.94334C17.96 6.76209 17.9538 6.58709 17.945 6.41334C18.7588 5.83584 19.4425 5.11459 20 4.28459Z" fill="white"/>
</g>
<defs>
<clipPath id="clip0_10_4">
<rect width="20" height="20" fill="white" transform="translate(0 0.48584)"/>
</clipPath>
</defs>
</svg>
